<?xml version="1.0" encoding="UTF-8" standalone="no"?>
<!-- Created with Inkscape (http://www.inkscape.org/) -->

<svg
   xmlns:dc="http://purl.org/dc/elements/1.1/"
   xmlns:cc="http://creativecommons.org/ns#"
   xmlns:rdf="http://www.w3.org/1999/02/22-rdf-syntax-ns#"
   xmlns:svg="http://www.w3.org/2000/svg"
   xmlns="http://www.w3.org/2000/svg"
   xmlns:sodipodi="http://sodipodi.sourceforge.net/DTD/sodipodi-0.dtd"
   xmlns:inkscape="http://www.inkscape.org/namespaces/inkscape"
   id="svg3292"
   version="1.1"
   inkscape:version="0.48.3.1 r9886"
   width="850"
   height="170"
   sodipodi:docname="header-home-en.svg"
   inkscape:export-filename="/home/roidelapluie/rmll/website/rmll-web/content/media/img/header-home-en.png"
   inkscape:export-xdpi="90"
   inkscape:export-ydpi="90">
  <metadata
     id="metadata3298">
    <rdf:RDF>
      <cc:Work
         rdf:about="">
        <dc:format>image/svg+xml</dc:format>
        <dc:type
           rdf:resource="http://purl.org/dc/dcmitype/StillImage" />
        <dc:title></dc:title>
      </cc:Work>
    </rdf:RDF>
  </metadata>
  <defs
     id="defs3296" />
  <sodipodi:namedview
     pagecolor="#ffffff"
     bordercolor="#666666"
     borderopacity="1"
     objecttolerance="10"
     gridtolerance="10"
     guidetolerance="10"
     inkscape:pageopacity="1"
     inkscape:pageshadow="2"
     inkscape:window-width="1740"
     inkscape:window-height="999"
     id="namedview3294"
     showgrid="false"
     inkscape:zoom="1.2561544"
     inkscape:cx="448.31599"
     inkscape:cy="168.31879"
     inkscape:window-x="0"
     inkscape:window-y="0"
     inkscape:window-maximized="0"
     inkscape:current-layer="svg3292" />
  <text
     xml:space="preserve"
     style="font-size:40px;font-style:normal;font-weight:normal;line-height:125%;letter-spacing:0px;word-spacing:0px;fill:#000000;fill-opacity:1;stroke:none;font-family:Sans"
     x="30.960266"
     y="64.172188"
     id="text3302"
     sodipodi:linespacing="125%"><tspan
       sodipodi:role="line"
       id="tspan3304"
       x="30.960266"
       y="64.172188"
       style="font-style:normal;font-variant:normal;font-weight:bold;font-stretch:normal;font-family:Swis721 Cn BT;-inkscape-font-specification:Swis721 Cn BT Bold"><tspan
   style="fill:#acc631;fill-opacity:1"
   id="tspan4115">EVERYDAY</tspan> FREEDOM</tspan></text>
  <text
     xml:space="preserve"
     style="font-size:40px;font-style:normal;font-weight:normal;text-align:end;line-height:125%;letter-spacing:0px;word-spacing:0px;text-anchor:end;fill:#000000;fill-opacity:1;stroke:none;font-family:Sans"
     x="737.87305"
     y="45.033115"
     id="text3306"
     sodipodi:linespacing="125%"><tspan
       sodipodi:role="line"
       id="tspan3308"
       x="737.87305"
       y="45.033115"
       style="font-size:15px;font-style:normal;font-variant:normal;font-weight:600;font-stretch:normal;text-align:end;text-anchor:end;font-family:FreeSans;-inkscape-font-specification:FreeSans Semi-Bold">From 6th to 11th July 2013</tspan></text>
  <text
     xml:space="preserve"
     style="font-size:40px;font-style:normal;font-weight:normal;text-align:end;line-height:125%;letter-spacing:0px;word-spacing:0px;text-anchor:end;fill:#000000;fill-opacity:1;stroke:none;font-family:Sans"
     x="737.26056"
     y="64.627205"
     id="text3306-5"
     sodipodi:linespacing="125%"><tspan
       sodipodi:role="line"
       id="tspan3308-2"
       x="737.26056"
       y="64.627205"
       style="font-size:15px;font-style:normal;font-variant:normal;font-weight:600;font-stretch:normal;text-align:end;text-anchor:end;font-family:FreeSans;-inkscape-font-specification:FreeSans Semi-Bold">ULB, Brussels</tspan></text>
  <text
     xml:space="preserve"
     style="font-size:40px;font-style:normal;font-weight:normal;text-align:end;line-height:125%;letter-spacing:0px;word-spacing:0px;text-anchor:end;fill:#acc631;fill-opacity:1;stroke:none;font-family:Sans"
     x="736.55371"
     y="85"
     id="text3331"
     sodipodi:linespacing="125%"><tspan
       sodipodi:role="line"
       id="tspan3333"
       x="736.55371"
       y="85"
       style="font-size:15px;font-style:normal;font-variant:normal;font-weight:normal;font-stretch:normal;text-align:end;text-anchor:end;fill:#acc631;fill-opacity:1;font-family:FreeSans;-inkscape-font-specification:FreeSans">Free entrance</tspan></text>
  <text
     xml:space="preserve"
     style="font-size:40px;font-style:normal;font-weight:normal;line-height:125%;letter-spacing:0px;word-spacing:0px;fill:#000000;fill-opacity:1;stroke:none;font-family:Sans"
     x="33.211922"
     y="87.814568"
     id="text4103"
     sodipodi:linespacing="125%"><tspan
       sodipodi:role="line"
       id="tspan4105"
       x="33.211922"
       y="87.814568"
       style="font-size:15px;font-style:normal;font-variant:normal;font-weight:normal;font-stretch:normal;font-family:FreeSans;-inkscape-font-specification:FreeSans">Culture, society and libre software</tspan></text>
  <g
     transform="matrix(0.90474614,0,0,-0.90474614,744.42036,104.4538)"
     inkscape:label="ink_ext_XXXXXX"
     id="g4176">
    <g
       transform="scale(0.1,0.1)"
       id="g4178">
      <path
         style="fill:#000000;fill-opacity:1;fill-rule:nonzero;stroke:none"
         d="M 755.28125 25.75 L 755.28125 28.46875 L 755.28125 31.15625 L 755.28125 33.875 L 755.28125 36.59375 L 755.28125 39.3125 L 755.28125 42.03125 L 755.28125 44.75 L 758 44.75 L 760.71875 44.75 L 763.40625 44.75 L 766.125 44.75 L 768.84375 44.75 L 771.5625 44.75 L 774.28125 44.75 L 774.28125 42.03125 L 774.28125 39.3125 L 774.28125 36.59375 L 774.28125 33.875 L 774.28125 31.15625 L 774.28125 28.46875 L 774.28125 25.75 L 771.5625 25.75 L 768.84375 25.75 L 766.125 25.75 L 763.40625 25.75 L 760.71875 25.75 L 758 25.75 L 755.28125 25.75 z M 777 25.75 L 777 28.46875 L 779.71875 28.46875 L 782.40625 28.46875 L 782.40625 25.75 L 779.71875 25.75 L 777 25.75 z M 793.28125 25.75 L 793.28125 28.46875 L 790.5625 28.46875 L 790.5625 31.15625 L 787.84375 31.15625 L 785.125 31.15625 L 785.125 33.875 L 785.125 36.59375 L 782.40625 36.59375 L 782.40625 33.875 L 779.71875 33.875 L 779.71875 31.15625 L 777 31.15625 L 777 33.875 L 777 36.59375 L 777 39.3125 L 779.71875 39.3125 L 779.71875 42.03125 L 782.40625 42.03125 L 782.40625 39.3125 L 785.125 39.3125 L 787.84375 39.3125 L 787.84375 36.59375 L 787.84375 33.875 L 790.5625 33.875 L 793.28125 33.875 L 793.28125 36.59375 L 790.5625 36.59375 L 790.5625 39.3125 L 793.28125 39.3125 L 796 39.3125 L 798.71875 39.3125 L 801.40625 39.3125 L 801.40625 36.59375 L 798.71875 36.59375 L 798.71875 33.875 L 796 33.875 L 796 31.15625 L 796 28.46875 L 796 25.75 L 793.28125 25.75 z M 798.71875 33.875 L 801.40625 33.875 L 801.40625 31.15625 L 801.40625 28.46875 L 801.40625 25.75 L 798.71875 25.75 L 798.71875 28.46875 L 798.71875 31.15625 L 798.71875 33.875 z M 790.5625 39.3125 L 787.84375 39.3125 L 787.84375 42.03125 L 787.84375 44.75 L 790.5625 44.75 L 790.5625 42.03125 L 790.5625 39.3125 z M 787.84375 44.75 L 785.125 44.75 L 785.125 47.46875 L 787.84375 47.46875 L 787.84375 44.75 z M 785.125 44.75 L 785.125 42.03125 L 782.40625 42.03125 L 782.40625 44.75 L 785.125 44.75 z M 782.40625 44.75 L 779.71875 44.75 L 779.71875 47.46875 L 782.40625 47.46875 L 782.40625 44.75 z M 779.71875 47.46875 L 777 47.46875 L 777 50.15625 L 779.71875 50.15625 L 779.71875 47.46875 z M 779.71875 50.15625 L 779.71875 52.875 L 782.40625 52.875 L 782.40625 50.15625 L 779.71875 50.15625 z M 777 50.15625 L 774.28125 50.15625 L 774.28125 52.875 L 771.5625 52.875 L 771.5625 55.59375 L 774.28125 55.59375 L 774.28125 58.3125 L 777 58.3125 L 777 55.59375 L 777 52.875 L 777 50.15625 z M 777 58.3125 L 777 61.03125 L 779.71875 61.03125 L 779.71875 63.75 L 782.40625 63.75 L 782.40625 66.46875 L 779.71875 66.46875 L 779.71875 63.75 L 777 63.75 L 777 66.46875 L 774.28125 66.46875 L 774.28125 69.15625 L 777 69.15625 L 779.71875 69.15625 L 779.71875 71.875 L 782.40625 71.875 L 782.40625 69.15625 L 785.125 69.15625 L 785.125 66.46875 L 785.125 63.75 L 787.84375 63.75 L 787.84375 61.03125 L 787.84375 58.3125 L 790.5625 58.3125 L 790.5625 61.03125 L 793.28125 61.03125 L 793.28125 58.3125 L 796 58.3125 L 798.71875 58.3125 L 801.40625 58.3125 L 801.40625 55.59375 L 801.40625 52.875 L 801.40625 50.15625 L 804.125 50.15625 L 804.125 47.46875 L 801.40625 47.46875 L 798.71875 47.46875 L 798.71875 50.15625 L 798.71875 52.875 L 798.71875 55.59375 L 796 55.59375 L 796 52.875 L 796 50.15625 L 796 47.46875 L 793.28125 47.46875 L 793.28125 50.15625 L 793.28125 52.875 L 790.5625 52.875 L 790.5625 55.59375 L 787.84375 55.59375 L 785.125 55.59375 L 785.125 58.3125 L 785.125 61.03125 L 782.40625 61.03125 L 782.40625 58.3125 L 779.71875 58.3125 L 777 58.3125 z M 796 47.46875 L 798.71875 47.46875 L 798.71875 44.75 L 796 44.75 L 796 47.46875 z M 796 44.75 L 796 42.03125 L 793.28125 42.03125 L 793.28125 44.75 L 796 44.75 z M 798.71875 44.75 L 801.40625 44.75 L 801.40625 42.03125 L 798.71875 42.03125 L 798.71875 44.75 z M 804.125 50.15625 L 804.125 52.875 L 806.84375 52.875 L 806.84375 50.15625 L 804.125 50.15625 z M 801.40625 58.3125 L 801.40625 61.03125 L 804.125 61.03125 L 806.84375 61.03125 L 806.84375 58.3125 L 804.125 58.3125 L 801.40625 58.3125 z M 806.84375 58.3125 L 809.5625 58.3125 L 809.5625 55.59375 L 806.84375 55.59375 L 806.84375 58.3125 z M 809.5625 55.59375 L 812.28125 55.59375 L 812.28125 52.875 L 809.5625 52.875 L 809.5625 55.59375 z M 812.28125 55.59375 L 812.28125 58.3125 L 815 58.3125 L 815 61.03125 L 817.71875 61.03125 L 820.40625 61.03125 L 820.40625 63.75 L 823.125 63.75 L 823.125 61.03125 L 823.125 58.3125 L 820.40625 58.3125 L 817.71875 58.3125 L 817.71875 55.59375 L 815 55.59375 L 812.28125 55.59375 z M 820.40625 63.75 L 817.71875 63.75 L 815 63.75 L 815 66.46875 L 817.71875 66.46875 L 820.40625 66.46875 L 820.40625 63.75 z M 820.40625 66.46875 L 820.40625 69.15625 L 817.71875 69.15625 L 815 69.15625 L 815 71.875 L 815 74.59375 L 817.71875 74.59375 L 817.71875 71.875 L 820.40625 71.875 L 820.40625 74.59375 L 817.71875 74.59375 L 817.71875 77.3125 L 817.71875 80.03125 L 815 80.03125 L 815 82.75 L 817.71875 82.75 L 820.40625 82.75 L 820.40625 80.03125 L 820.40625 77.3125 L 823.125 77.3125 L 823.125 74.59375 L 823.125 71.875 L 823.125 69.15625 L 823.125 66.46875 L 820.40625 66.46875 z M 820.40625 82.75 L 820.40625 85.46875 L 823.125 85.46875 L 823.125 82.75 L 820.40625 82.75 z M 820.40625 85.46875 L 817.71875 85.46875 L 815 85.46875 L 812.28125 85.46875 L 812.28125 88.15625 L 809.5625 88.15625 L 809.5625 90.875 L 812.28125 90.875 L 812.28125 93.59375 L 815 93.59375 L 817.71875 93.59375 L 820.40625 93.59375 L 823.125 93.59375 L 823.125 90.875 L 820.40625 90.875 L 817.71875 90.875 L 815 90.875 L 815 88.15625 L 817.71875 88.15625 L 820.40625 88.15625 L 820.40625 85.46875 z M 809.5625 90.875 L 806.84375 90.875 L 804.125 90.875 L 804.125 93.59375 L 806.84375 93.59375 L 809.5625 93.59375 L 809.5625 90.875 z M 809.5625 88.15625 L 809.5625 85.46875 L 812.28125 85.46875 L 812.28125 82.75 L 812.28125 80.03125 L 815 80.03125 L 815 77.3125 L 815 74.59375 L 812.28125 74.59375 L 812.28125 71.875 L 812.28125 69.15625 L 809.5625 69.15625 L 806.84375 69.15625 L 806.84375 66.46875 L 809.5625 66.46875 L 812.28125 66.46875 L 812.28125 63.75 L 812.28125 61.03125 L 812.28125 58.3125 L 809.5625 58.3125 L 809.5625 61.03125 L 809.5625 63.75 L 806.84375 63.75 L 804.125 63.75 L 804.125 66.46875 L 804.125 69.15625 L 801.40625 69.15625 L 798.71875 69.15625 L 798.71875 71.875 L 796 71.875 L 793.28125 71.875 L 793.28125 74.59375 L 796 74.59375 L 796 77.3125 L 798.71875 77.3125 L 798.71875 80.03125 L 796 80.03125 L 796 82.75 L 798.71875 82.75 L 798.71875 85.46875 L 798.71875 88.15625 L 798.71875 90.875 L 801.40625 90.875 L 801.40625 88.15625 L 804.125 88.15625 L 806.84375 88.15625 L 809.5625 88.15625 z M 796 80.03125 L 796 77.3125 L 793.28125 77.3125 L 793.28125 80.03125 L 796 80.03125 z M 793.28125 80.03125 L 790.5625 80.03125 L 790.5625 77.3125 L 790.5625 74.59375 L 790.5625 71.875 L 787.84375 71.875 L 787.84375 74.59375 L 785.125 74.59375 L 785.125 77.3125 L 787.84375 77.3125 L 787.84375 80.03125 L 785.125 80.03125 L 782.40625 80.03125 L 782.40625 82.75 L 785.125 82.75 L 787.84375 82.75 L 787.84375 85.46875 L 785.125 85.46875 L 782.40625 85.46875 L 782.40625 82.75 L 779.71875 82.75 L 777 82.75 L 777 85.46875 L 777 88.15625 L 777 90.875 L 777 93.59375 L 779.71875 93.59375 L 779.71875 90.875 L 779.71875 88.15625 L 782.40625 88.15625 L 785.125 88.15625 L 787.84375 88.15625 L 790.5625 88.15625 L 793.28125 88.15625 L 793.28125 85.46875 L 793.28125 82.75 L 793.28125 80.03125 z M 782.40625 80.03125 L 782.40625 77.3125 L 779.71875 77.3125 L 779.71875 80.03125 L 782.40625 80.03125 z M 785.125 74.59375 L 785.125 71.875 L 782.40625 71.875 L 782.40625 74.59375 L 785.125 74.59375 z M 785.125 71.875 L 787.84375 71.875 L 787.84375 69.15625 L 785.125 69.15625 L 785.125 71.875 z M 787.84375 69.15625 L 790.5625 69.15625 L 790.5625 66.46875 L 790.5625 63.75 L 787.84375 63.75 L 787.84375 66.46875 L 787.84375 69.15625 z M 790.5625 69.15625 L 790.5625 71.875 L 793.28125 71.875 L 793.28125 69.15625 L 790.5625 69.15625 z M 793.28125 69.15625 L 796 69.15625 L 796 66.46875 L 793.28125 66.46875 L 793.28125 69.15625 z M 812.28125 66.46875 L 812.28125 69.15625 L 815 69.15625 L 815 66.46875 L 812.28125 66.46875 z M 801.40625 61.03125 L 798.71875 61.03125 L 796 61.03125 L 796 63.75 L 798.71875 63.75 L 801.40625 63.75 L 801.40625 61.03125 z M 779.71875 71.875 L 777 71.875 L 777 74.59375 L 779.71875 74.59375 L 779.71875 71.875 z M 774.28125 69.15625 L 771.5625 69.15625 L 771.5625 71.875 L 774.28125 71.875 L 774.28125 69.15625 z M 771.5625 69.15625 L 771.5625 66.46875 L 774.28125 66.46875 L 774.28125 63.75 L 771.5625 63.75 L 768.84375 63.75 L 768.84375 66.46875 L 768.84375 69.15625 L 771.5625 69.15625 z M 768.84375 69.15625 L 766.125 69.15625 L 763.40625 69.15625 L 760.71875 69.15625 L 760.71875 71.875 L 763.40625 71.875 L 766.125 71.875 L 768.84375 71.875 L 768.84375 69.15625 z M 768.84375 63.75 L 768.84375 61.03125 L 766.125 61.03125 L 763.40625 61.03125 L 763.40625 58.3125 L 760.71875 58.3125 L 758 58.3125 L 758 61.03125 L 760.71875 61.03125 L 760.71875 63.75 L 763.40625 63.75 L 766.125 63.75 L 768.84375 63.75 z M 760.71875 63.75 L 758 63.75 L 758 66.46875 L 760.71875 66.46875 L 760.71875 63.75 z M 758 66.46875 L 755.28125 66.46875 L 755.28125 69.15625 L 758 69.15625 L 758 66.46875 z M 768.84375 61.03125 L 771.5625 61.03125 L 774.28125 61.03125 L 774.28125 58.3125 L 771.5625 58.3125 L 768.84375 58.3125 L 768.84375 61.03125 z M 768.84375 58.3125 L 768.84375 55.59375 L 766.125 55.59375 L 766.125 58.3125 L 768.84375 58.3125 z M 774.28125 61.03125 L 774.28125 63.75 L 777 63.75 L 777 61.03125 L 774.28125 61.03125 z M 774.28125 50.15625 L 774.28125 47.46875 L 771.5625 47.46875 L 771.5625 50.15625 L 774.28125 50.15625 z M 779.71875 44.75 L 779.71875 42.03125 L 777 42.03125 L 777 44.75 L 779.71875 44.75 z M 804.125 25.75 L 804.125 28.46875 L 804.125 31.15625 L 804.125 33.875 L 804.125 36.59375 L 804.125 39.3125 L 804.125 42.03125 L 804.125 44.75 L 806.84375 44.75 L 809.5625 44.75 L 812.28125 44.75 L 815 44.75 L 817.71875 44.75 L 820.40625 44.75 L 823.125 44.75 L 823.125 42.03125 L 823.125 39.3125 L 823.125 36.59375 L 823.125 33.875 L 823.125 31.15625 L 823.125 28.46875 L 823.125 25.75 L 820.40625 25.75 L 817.71875 25.75 L 815 25.75 L 812.28125 25.75 L 809.5625 25.75 L 806.84375 25.75 L 804.125 25.75 z M 758 28.46875 L 760.71875 28.46875 L 763.40625 28.46875 L 766.125 28.46875 L 768.84375 28.46875 L 771.5625 28.46875 L 771.5625 31.15625 L 771.5625 33.875 L 771.5625 36.59375 L 771.5625 39.3125 L 771.5625 42.03125 L 768.84375 42.03125 L 766.125 42.03125 L 763.40625 42.03125 L 760.71875 42.03125 L 758 42.03125 L 758 39.3125 L 758 36.59375 L 758 33.875 L 758 31.15625 L 758 28.46875 z M 806.84375 28.46875 L 809.5625 28.46875 L 812.28125 28.46875 L 815 28.46875 L 817.71875 28.46875 L 820.40625 28.46875 L 820.40625 31.15625 L 820.40625 33.875 L 820.40625 36.59375 L 820.40625 39.3125 L 820.40625 42.03125 L 817.71875 42.03125 L 815 42.03125 L 812.28125 42.03125 L 809.5625 42.03125 L 806.84375 42.03125 L 806.84375 39.3125 L 806.84375 36.59375 L 806.84375 33.875 L 806.84375 31.15625 L 806.84375 28.46875 z M 760.71875 31.15625 L 760.71875 33.875 L 760.71875 36.59375 L 760.71875 39.3125 L 763.40625 39.3125 L 766.125 39.3125 L 768.84375 39.3125 L 768.84375 36.59375 L 768.84375 33.875 L 768.84375 31.15625 L 766.125 31.15625 L 763.40625 31.15625 L 760.71875 31.15625 z M 809.5625 31.15625 L 809.5625 33.875 L 809.5625 36.59375 L 809.5625 39.3125 L 812.28125 39.3125 L 815 39.3125 L 817.71875 39.3125 L 817.71875 36.59375 L 817.71875 33.875 L 817.71875 31.15625 L 815 31.15625 L 812.28125 31.15625 L 809.5625 31.15625 z M 755.28125 47.46875 L 755.28125 50.15625 L 758 50.15625 L 760.71875 50.15625 L 763.40625 50.15625 L 763.40625 52.875 L 766.125 52.875 L 768.84375 52.875 L 768.84375 50.15625 L 766.125 50.15625 L 766.125 47.46875 L 763.40625 47.46875 L 760.71875 47.46875 L 758 47.46875 L 755.28125 47.46875 z M 763.40625 52.875 L 760.71875 52.875 L 758 52.875 L 758 55.59375 L 760.71875 55.59375 L 763.40625 55.59375 L 763.40625 52.875 z M 809.5625 47.46875 L 809.5625 50.15625 L 812.28125 50.15625 L 815 50.15625 L 817.71875 50.15625 L 817.71875 47.46875 L 815 47.46875 L 812.28125 47.46875 L 809.5625 47.46875 z M 817.71875 50.15625 L 817.71875 52.875 L 820.40625 52.875 L 820.40625 50.15625 L 817.71875 50.15625 z M 820.40625 50.15625 L 823.125 50.15625 L 823.125 47.46875 L 820.40625 47.46875 L 820.40625 50.15625 z M 801.40625 71.875 L 804.125 71.875 L 806.84375 71.875 L 809.5625 71.875 L 809.5625 74.59375 L 809.5625 77.3125 L 809.5625 80.03125 L 806.84375 80.03125 L 804.125 80.03125 L 801.40625 80.03125 L 801.40625 77.3125 L 801.40625 74.59375 L 801.40625 71.875 z M 755.28125 74.59375 L 755.28125 77.3125 L 755.28125 80.03125 L 755.28125 82.75 L 755.28125 85.46875 L 755.28125 88.15625 L 755.28125 90.875 L 755.28125 93.59375 L 758 93.59375 L 760.71875 93.59375 L 763.40625 93.59375 L 766.125 93.59375 L 768.84375 93.59375 L 771.5625 93.59375 L 774.28125 93.59375 L 774.28125 90.875 L 774.28125 88.15625 L 774.28125 85.46875 L 774.28125 82.75 L 774.28125 80.03125 L 774.28125 77.3125 L 774.28125 74.59375 L 771.5625 74.59375 L 768.84375 74.59375 L 766.125 74.59375 L 763.40625 74.59375 L 760.71875 74.59375 L 758 74.59375 L 755.28125 74.59375 z M 804.125 74.59375 L 804.125 77.3125 L 806.84375 77.3125 L 806.84375 74.59375 L 804.125 74.59375 z M 758 77.3125 L 760.71875 77.3125 L 763.40625 77.3125 L 766.125 77.3125 L 768.84375 77.3125 L 771.5625 77.3125 L 771.5625 80.03125 L 771.5625 82.75 L 771.5625 85.46875 L 771.5625 88.15625 L 771.5625 90.875 L 768.84375 90.875 L 766.125 90.875 L 763.40625 90.875 L 760.71875 90.875 L 758 90.875 L 758 88.15625 L 758 85.46875 L 758 82.75 L 758 80.03125 L 758 77.3125 z M 760.71875 80.03125 L 760.71875 82.75 L 760.71875 85.46875 L 760.71875 88.15625 L 763.40625 88.15625 L 766.125 88.15625 L 768.84375 88.15625 L 768.84375 85.46875 L 768.84375 82.75 L 768.84375 80.03125 L 766.125 80.03125 L 763.40625 80.03125 L 760.71875 80.03125 z M 801.40625 82.75 L 804.125 82.75 L 806.84375 82.75 L 806.84375 85.46875 L 804.125 85.46875 L 801.40625 85.46875 L 801.40625 82.75 z M 787.84375 90.875 L 787.84375 93.59375 L 790.5625 93.59375 L 790.5625 90.875 L 787.84375 90.875 z M 793.28125 90.875 L 793.28125 93.59375 L 796 93.59375 L 796 90.875 L 793.28125 90.875 z "
         transform="matrix(11.052824,0,0,-11.052824,-8227.9473,1154.5095)"
         id="path4180" />
    </g>
  </g>
</svg>
