<?xml version="1.0" encoding="UTF-8" standalone="no"?>
<!-- Created with Inkscape (http://www.inkscape.org/) -->

<svg
   xmlns:dc="http://purl.org/dc/elements/1.1/"
   xmlns:cc="http://creativecommons.org/ns#"
   xmlns:rdf="http://www.w3.org/1999/02/22-rdf-syntax-ns#"
   xmlns:svg="http://www.w3.org/2000/svg"
   xmlns="http://www.w3.org/2000/svg"
   xmlns:xlink="http://www.w3.org/1999/xlink"
   xmlns:sodipodi="http://sodipodi.sourceforge.net/DTD/sodipodi-0.dtd"
   xmlns:inkscape="http://www.inkscape.org/namespaces/inkscape"
   width="141.73228"
   height="141.73228"
   id="svg4103"
   version="1.1"
   inkscape:version="0.48.3.1 r9886"
   sodipodi:docname="New document 5">
  <defs
     id="defs4105">
    <path
       sodipodi:type="arc"
       style="color:#000000;fill:none;stroke:#000000;stroke-width:5;stroke-linecap:round;stroke-linejoin:round;stroke-miterlimit:4;stroke-opacity:1;stroke-dasharray:none;stroke-dashoffset:0;marker:none;visibility:visible;display:inline;overflow:visible;enable-background:accumulate"
       id="path9631"
       sodipodi:cx="42.162521"
       sodipodi:cy="461.53931"
       sodipodi:rx="47.638176"
       sodipodi:ry="47.638176"
       d="M 88.63158,472.02846 A 47.638176,47.638176 0 0 1 -5.4756546,461.5393"
       sodipodi:start="0.22200296"
       sodipodi:end="3.1415927"
       transform="matrix(-1,0,0,1,274.87774,-34.469837)"
       sodipodi:open="true" />
    <path
       transform="matrix(-0.99965663,0.26785719,-0.26785719,-0.99965663,-613.6675,795.16066)"
       d="m -215.74069,378.30939 a 133.05835,133.05835 0 1 1 -266.1167,0 133.05835,133.05835 0 1 1 266.1167,0 z"
       sodipodi:ry="133.05835"
       sodipodi:rx="133.05835"
       sodipodi:cy="378.30939"
       sodipodi:cx="-348.79904"
       id="path9624"
       style="color:#000000;fill:none;stroke:#acc631;stroke-width:0.76105928;stroke-miterlimit:4;stroke-opacity:1;stroke-dasharray:none;marker:none;visibility:visible;display:inline;overflow:visible;enable-background:accumulate"
       sodipodi:type="arc" />
  </defs>
  <sodipodi:namedview
     id="base"
     pagecolor="#ffffff"
     bordercolor="#666666"
     borderopacity="1.0"
     inkscape:pageopacity="0.0"
     inkscape:pageshadow="2"
     inkscape:zoom="3.1397222"
     inkscape:cx="70.866142"
     inkscape:cy="70.866142"
     inkscape:document-units="mm"
     inkscape:current-layer="layer1"
     showgrid="false"
     units="mm"
     inkscape:window-width="1366"
     inkscape:window-height="681"
     inkscape:window-x="0"
     inkscape:window-y="27"
     inkscape:window-maximized="1" />
  <metadata
     id="metadata4108">
    <rdf:RDF>
      <cc:Work
         rdf:about="">
        <dc:format>image/svg+xml</dc:format>
        <dc:type
           rdf:resource="http://purl.org/dc/dcmitype/StillImage" />
        <dc:title></dc:title>
      </cc:Work>
    </rdf:RDF>
  </metadata>
  <g
     inkscape:label="Layer 1"
     inkscape:groupmode="layer"
     id="layer1"
     transform="translate(0,-910.62991)">
    <g
       style="display:inline"
       id="g10016"
       transform="translate(-358.42447,284.43944)"
       inkscape:export-filename="/home/agnez/PROJETS/RMLL/imgWorks/etiquettesBiereLibre_variantes.png"
       inkscape:export-xdpi="90"
       inkscape:export-ydpi="90">
      <path
         sodipodi:type="star"
         style="color:#000000;fill:#acc631;fill-opacity:1;fill-rule:nonzero;stroke:#acc631;stroke-width:3.87325048;stroke-linecap:round;stroke-linejoin:round;stroke-miterlimit:4;stroke-opacity:1;stroke-dasharray:none;stroke-dashoffset:0;marker:none;visibility:visible;display:inline;overflow:visible;enable-background:accumulate"
         id="path9629"
         sodipodi:sides="27"
         sodipodi:cx="-380.01028"
         sodipodi:cy="662.49573"
         sodipodi:r1="150.25253"
         sodipodi:r2="137.47527"
         sodipodi:arg1="1.0471976"
         sodipodi:arg2="1.1635529"
         inkscape:flatsided="false"
         inkscape:rounded="0"
         inkscape:randomized="0"
         d="m -304.88402,792.61824 -20.6751,-3.89051 -11.35826,17.70835 -19.22058,-8.55364 -15.13592,14.61162 -16.72989,-12.75565 -18.0976,10.72718 -13.33727,-16.27 -20.08364,6.26443 -9.22564,-18.90722 -20.98696,1.46396 -4.61666,-20.52515 -20.75887,-3.41542 0.24121,-21.03658 -19.41166,-8.11068 5.08608,-20.4139 -17.01796,-12.36869 9.65675,-18.69072 -13.70683,-15.9599 13.70683,-15.95991 -9.65675,-18.69071 17.01797,-12.36869 -5.08608,-20.4139 19.41166,-8.11068 -0.24121,-21.03657 20.75887,-3.41542 4.61666,-20.52516 20.98696,1.46397 9.22564,-18.90722 20.08364,6.26443 13.33727,-16.26999 18.09761,10.72718 16.72988,-12.75565 15.13592,14.61162 19.22058,-8.55364 11.35826,17.70835 20.6751,-3.89051 6.96827,19.85041 21.01501,0.98237 2.20261,20.92234 20.222,5.80228 -2.68178,20.86633 18.33881,10.30939 -7.42159,19.68542 15.46698,14.26072 -11.76132,17.44326 11.76131,17.44325 -15.46697,14.26072 7.42159,19.68542 -18.33881,10.30939 2.68177,20.86633 -20.222,5.80228 -2.20262,20.92233 -21.01501,0.98237 z"
         transform="matrix(0.46720963,0,0,0.46641921,607.07241,388.05588)" />
      <g
         id="use9917-8"
         transform="matrix(0.31241865,0,0,0.31241865,544.76258,596.83841)">
        <path
           sodipodi:open="true"
           transform="matrix(-3.2944827,0,0,3.2944827,-232.62863,-1194.9392)"
           sodipodi:end="3.1415927"
           sodipodi:start="0.22200296"
           d="M 88.63158,472.02846 C 82.838578,497.69262 57.337516,513.80137 31.673364,508.00836 9.9513852,503.1052 -5.4756556,483.80779 -5.4756546,461.5393"
           sodipodi:ry="47.638176"
           sodipodi:rx="47.638176"
           sodipodi:cy="461.53931"
           sodipodi:cx="42.162521"
           id="path10107"
           style="color:#000000;fill:none;stroke:#000000;stroke-width:5;stroke-linecap:round;stroke-linejoin:round;stroke-miterlimit:4;stroke-opacity:1;stroke-dasharray:none;stroke-dashoffset:0;marker:none;visibility:visible;display:inline;overflow:visible;enable-background:accumulate"
           sodipodi:type="arc" />
        <path
           sodipodi:type="arc"
           style="color:#000000;fill:none;stroke:#acc631;stroke-width:0.76105928;stroke-miterlimit:4;stroke-opacity:1;stroke-dasharray:none;marker:none;visibility:visible;display:inline;overflow:visible;enable-background:accumulate"
           id="path10109"
           sodipodi:cx="-348.79904"
           sodipodi:cy="378.30939"
           sodipodi:rx="133.05835"
           sodipodi:ry="133.05835"
           d="m -215.74069,378.30939 c 0,73.48609 -59.57225,133.05835 -133.05835,133.05835 -73.4861,0 -133.05835,-59.57226 -133.05835,-133.05835 0,-73.4861 59.57225,-133.05835 133.05835,-133.05835 73.4861,0 133.05835,59.57225 133.05835,133.05835 z"
           transform="matrix(-0.99965663,0.26785719,-0.26785719,-0.99965663,-616.95289,795.16066)" />
        <path
           transform="matrix(1.4608874,0,0,1.4608874,139.94962,-231.88567)"
           d="m -215.74069,378.30939 c 0,73.48609 -59.57225,133.05835 -133.05835,133.05835 -73.4861,0 -133.05835,-59.57226 -133.05835,-133.05835 0,-73.4861 59.57225,-133.05835 133.05835,-133.05835 73.4861,0 133.05835,59.57225 133.05835,133.05835 z"
           sodipodi:ry="133.05835"
           sodipodi:rx="133.05835"
           sodipodi:cy="378.30939"
           sodipodi:cx="-348.79904"
           id="path10111"
           style="color:#000000;fill:#000000;fill-opacity:1;fill-rule:nonzero;stroke:none;stroke-width:1.17992127;marker:none;visibility:visible;display:inline;overflow:visible;enable-background:accumulate"
           sodipodi:type="arc" />
        <path
           transform="matrix(1.3139581,0,0,1.3139581,88.70082,-176.30094)"
           d="m -215.74069,378.30939 c 0,73.48609 -59.57225,133.05835 -133.05835,133.05835 -73.4861,0 -133.05835,-59.57226 -133.05835,-133.05835 0,-73.4861 59.57225,-133.05835 133.05835,-133.05835 73.4861,0 133.05835,59.57225 133.05835,133.05835 z"
           sodipodi:ry="133.05835"
           sodipodi:rx="133.05835"
           sodipodi:cy="378.30939"
           sodipodi:cx="-348.79904"
           id="path10113"
           style="color:#000000;fill:none;stroke:#ffffff;stroke-width:7.36373377;stroke-miterlimit:4;stroke-opacity:1;stroke-dasharray:none;marker:none;visibility:visible;display:inline;overflow:visible;enable-background:accumulate"
           sodipodi:type="arc" />
        <path
           sodipodi:type="arc"
           style="color:#000000;fill:#ffffff;fill-opacity:1;fill-rule:nonzero;stroke:none;stroke-width:1.17992127;marker:none;visibility:visible;display:inline;overflow:visible;enable-background:accumulate"
           id="path10115"
           sodipodi:cx="-348.79904"
           sodipodi:cy="378.30939"
           sodipodi:rx="133.05835"
           sodipodi:ry="133.05835"
           d="m -215.74069,378.30939 c 0,73.48609 -59.57225,133.05835 -133.05835,133.05835 -73.4861,0 -133.05835,-59.57226 -133.05835,-133.05835 0,-73.4861 59.57225,-133.05835 133.05835,-133.05835 73.4861,0 133.05835,59.57225 133.05835,133.05835 z"
           transform="matrix(0.84771863,0,0,0.84771863,-73.923061,0.08182796)" />
        <g
           style="display:inline"
           transform="matrix(0.72638858,0,0,0.72638858,-474.31033,-98.111395)"
           id="g10117">
          <path
             id="path10119"
             style="fill:#000000;fill-opacity:1;stroke:none"
             d="m 157.65147,448.60229 c -0.0653,-4.76501 -3.5987,-8.6273 -8.46136,-9.05981 l -10.09424,-5e-4 c -4.68683,-1.6e-4 -8.46149,4.04147 -8.46135,9.0598 l 1.43567,29.4568 c -1.4e-4,5.01833 3.77452,9.05996 8.46135,9.0598 l 7.22314,-3e-5 c 4.86266,-0.43251 8.39607,-4.2948 8.46136,-9.05981 z"
             sodipodi:nodetypes="ccccccccc"
             inkscape:connector-curvature="0" />
          <path
             id="path10121"
             style="fill:#acc631;fill-opacity:1;stroke:none"
             d="m 80.703753,596.01805 c 25.179537,-0.007 49.863167,-0.0164 71.915107,-0.0236 1.52958,0.0285 1.49698,0.78354 0.68258,1.63651 -8.47458,8.47456 -17.27094,17.27088 -24.55884,24.55875 -3.41919,3.41897 -3.41919,8.92627 0,12.34525 l 5.26936,5.26931 c 3.4188,3.41898 8.92626,3.41898 12.34525,0 l 48.71855,-48.71855 c 3.04301,-4.44035 3.37597,-11.5856 0,-15.11539 l -48.71855,-48.68846 c -3.29412,-3.19885 -8.50322,-3.25267 -12.34525,0 l -5.26936,5.26932 c -3.41919,3.41897 -3.41919,8.92626 0,12.34524 8.82574,8.81556 16.75414,16.73483 24.55884,24.53053 0.81837,0.8207 0.30531,1.6382 -0.70871,1.63513 -24.74377,-0.002 -50.33143,-0.006 -72.725331,-0.007 -8.61799,-0.12459 -9.754494,-3.27838 -8.720643,-8.11149 10.220274,-35.95241 40.720274,-56.5824 72.982284,-56.58793 41.55528,0 75.24582,33.69048 75.24582,75.24576 0,41.55529 -33.69054,75.24577 -75.24582,75.24577 -36.63385,0 -64.793776,-26.38447 -71.977835,-53.19574 -1.419572,-5.32833 0.34753,-7.6728 8.552548,-7.63348 z"
             sodipodi:nodetypes="ccccccccccccccccccssccc"
             inkscape:connector-curvature="0" />
          <path
             sodipodi:type="arc"
             style="fill:none;stroke:#000000;stroke-width:3.54746032;stroke-linecap:round;stroke-linejoin:round;stroke-miterlimit:4;stroke-opacity:1;stroke-dasharray:none"
             id="path10123"
             sodipodi:cx="-70.060562"
             sodipodi:cy="270.67203"
             sodipodi:rx="17.261297"
             sodipodi:ry="17.261297"
             d="m -52.838494,271.83511 c -0.642351,9.51148 -8.873661,16.70134 -18.385147,16.05899 -9.511485,-0.64235 -16.70134,-8.87367 -16.058989,-18.38515 0.64235,-9.51149 8.873661,-16.70134 18.385147,-16.05899 5.311942,0.35874 10.16111,3.14867 13.14107,7.56061"
             transform="matrix(1.5711431,-5.8644519,5.8635862,1.5713751,-1332.8906,-254.49348)"
             sodipodi:start="0.067431812"
             sodipodi:end="5.6891402"
             sodipodi:open="true" />
        </g>
        <g
           transform="translate(-1.7397722,-3.5470188)"
           id="g10125">
          <text
             transform="matrix(3.3535047,0,0,3.3535047,-1149.1434,-1107.031)"
             inkscape:transform-center-y="476.39572"
             inkscape:transform-center-x="83.370924"
             sodipodi:linespacing="125%"
             id="text10127"
             style="font-size:15px;font-style:normal;font-variant:normal;font-weight:600;font-stretch:normal;text-align:start;line-height:125%;letter-spacing:0px;word-spacing:0px;writing-mode:lr-tb;text-anchor:start;fill:#acc631;fill-opacity:1;stroke:none;font-family:FreeSans;-inkscape-font-specification:FreeSans Semi-Bold"
             xml:space="preserve"><textPath
               xlink:href="#path9631"
               id="textPath10129"><tspan
   id="tspan10131"
   style="font-size:15px;font-style:normal;font-variant:normal;font-weight:600;font-stretch:normal;text-align:start;line-height:125%;writing-mode:lr-tb;text-anchor:start;fill:#acc631;fill-opacity:1;font-family:FreeSans;-inkscape-font-specification:FreeSans Semi-Bold">BRUXELLES 2013</tspan></textPath></text>
          <text
             transform="matrix(0.9494865,0.26335479,-0.26335479,0.9494865,66.315132,115.4183)"
             inkscape:transform-center-y="-49.416809"
             inkscape:transform-center-x="10.641093"
             sodipodi:linespacing="125%"
             id="text10133"
             style="font-size:25px;font-style:normal;font-variant:normal;font-weight:normal;font-stretch:normal;text-align:start;line-height:125%;letter-spacing:0px;word-spacing:0px;writing-mode:lr-tb;text-anchor:start;fill:#acc631;fill-opacity:1;stroke:#acc631;stroke-width:1;stroke-miterlimit:4;stroke-opacity:1;stroke-dasharray:none;display:inline;font-family:FreeSans;-inkscape-font-specification:FreeSans"
             xml:space="preserve"><textPath
               xlink:href="#path9624"
               id="textPath10135"><tspan
   id="tspan10137"
   style="font-size:25px;font-style:normal;font-variant:normal;font-weight:normal;font-stretch:normal;text-align:start;line-height:125%;writing-mode:lr-tb;text-anchor:start;fill:#acc631;fill-opacity:1;stroke:#acc631;stroke-width:1;stroke-miterlimit:4;stroke-opacity:1;stroke-dasharray:none;font-family:FreeSans;-inkscape-font-specification:FreeSans">Rencontres Mondiales du Logiciel Libre</tspan></textPath></text>
        </g>
      </g>
    </g>
  </g>
</svg>
